<?xml version="1.0" encoding="UTF-8"?>
<svg xmlns="http://www.w3.org/2000/svg" xmlns:xlink="http://www.w3.org/1999/xlink" viewBox="0 0 32 32" width="32px" height="32px">
<g id="surface4370852">
<path style=" stroke:none;fill-rule:nonzero;fill:rgb(92.156863%,75.294119%,21.176471%);fill-opacity:1;" d="M 16 0.671875 C 15.859375 0.671875 15.722656 0.714844 15.605469 0.804688 L 0.882812 12.296875 C 0.609375 12.511719 0.558594 12.914062 0.773438 13.195312 C 0.992188 13.472656 1.394531 13.523438 1.675781 13.304688 L 2.558594 12.613281 L 2.558594 29.441406 C 2.558594 29.792969 2.847656 30.078125 3.199219 30.078125 L 12.160156 30.078125 L 12.160156 18.558594 L 19.839844 18.558594 L 19.839844 30.078125 L 28.800781 30.078125 C 29.152344 30.078125 29.441406 29.792969 29.441406 29.441406 L 29.441406 12.613281 L 30.324219 13.304688 C 30.445312 13.394531 30.578125 13.441406 30.71875 13.441406 C 30.910156 13.441406 31.097656 13.355469 31.226562 13.195312 C 31.441406 12.914062 31.390625 12.511719 31.117188 12.296875 L 16.394531 0.804688 C 16.277344 0.714844 16.140625 0.671875 16 0.671875 Z M 22.398438 3.199219 L 22.398438 3.871094 L 26.238281 6.867188 L 26.238281 3.199219 Z M 22.398438 3.199219 "/>
</g>
</svg>
